#tb 0: 1/1000
0,          0,          0,        0,    57624, 14cc1c34b8106e35238d4650a9123852
0,         33,         33,        0,    57624, 66e0bb9136ea24e30b781a4610b428a1
0,         66,         66,        0,    57624, 8e36679c20a3a3e974fdacf7a9343817
0,        100,        100,        0,    57624, 2669fd03ce7ce01f4fc9db23e06fffdb
0,        133,        133,        0,    57624, 46ced29eb6edf2136c8ee19e9a87380f
0,        166,        166,        0,    57624, 4e4138b65a30bc56cd18663a1799f98f
0,        200,        200,        0,    57624, 580b0431b5f808c67e50ed34e62f39ad
0,        233,        233,        0,    57624, 1339bbe256d8499ab17d6a550f7dac70
0,        266,        266,        0,    57624, 89b9dac29a4c4136249c40a3763dc114
0,        300,        300,        0,    57624, a735d341d7df9dcd0b6e51a82b813f61
